<svg width="28" height="28" viewBox="0 0 28 28" fill="none" xmlns="http://www.w3.org/2000/svg">
<g clip-path="url(#clip0_145_128)">
<path d="M9.40397 1.0778C9.40397 0.483073 8.81608 0 8.08919 0C7.3623 0 6.77441 0.483073 6.77441 1.0778V5.79915C6.77441 6.39388 7.3623 6.87695 8.08919 6.87695C8.81608 6.87695 9.40397 6.39388 9.40397 5.79915V1.0778ZM12.9359 23.6546C13.0133 23.6546 13.0749 23.3288 13.0749 22.9255C13.0749 22.5221 13.0133 22.1963 12.9359 22.1963H9.33789C9.26042 22.1963 9.19889 22.5221 9.19889 22.9255C9.19889 23.3288 9.26042 23.6546 9.33789 23.6546H12.9359ZM24.3883 15.2874C24.4658 15.2874 24.5273 14.9616 24.5273 14.5583C24.5273 14.1549 24.4658 13.8291 24.3883 13.8291H20.7904C20.7129 13.8291 20.6514 14.1549 20.6514 14.5583C20.6514 14.9616 20.7129 15.2874 20.7904 15.2874H24.3883ZM18.6621 15.2874C18.7396 15.2874 18.8011 14.9616 18.8011 14.5583C18.8011 14.1549 18.7396 13.8291 18.6621 13.8291H15.0641C14.9867 13.8291 14.9251 14.1549 14.9251 14.5583C14.9251 14.9616 14.9867 15.2874 15.0641 15.2874H18.6621ZM12.9359 15.2874C13.0133 15.2874 13.0749 14.9616 13.0749 14.5583C13.0749 14.1549 13.0133 13.8291 12.9359 13.8291H9.33789C9.26042 13.8291 9.19889 14.1549 9.19889 14.5583C9.19889 14.9616 9.26042 15.2874 9.33789 15.2874H12.9359ZM7.20736 15.2874C7.28483 15.2874 7.34635 14.9616 7.34635 14.5583C7.34635 14.1549 7.28483 13.8291 7.20736 13.8291H3.60937C3.5319 13.8291 3.47038 14.1549 3.47038 14.5583C3.47038 14.9616 3.5319 15.2874 3.60937 15.2874H7.20736ZM24.3883 19.471C24.4658 19.471 24.5273 19.1452 24.5273 18.7419C24.5273 18.3385 24.4658 18.0127 24.3883 18.0127H20.7904C20.7129 18.0127 20.6514 18.3385 20.6514 18.7419C20.6514 19.1452 20.7129 19.471 20.7904 19.471H24.3883ZM18.6621 19.471C18.7396 19.471 18.8011 19.1452 18.8011 18.7419C18.8011 18.3385 18.7396 18.0127 18.6621 18.0127H15.0641C14.9867 18.0127 14.9251 18.3385 14.9251 18.7419C14.9251 19.1452 14.9867 19.471 15.0641 19.471H18.6621ZM12.9359 19.471C13.0133 19.471 13.0749 19.1452 13.0749 18.7419C13.0749 18.3385 13.0133 18.0127 12.9359 18.0127H9.33789C9.26042 18.0127 9.19889 18.3385 9.19889 18.7419C9.19889 19.1452 9.26042 19.471 9.33789 19.471H12.9359ZM7.20736 19.471C7.28483 19.471 7.34635 19.1452 7.34635 18.7419C7.34635 18.3385 7.28483 18.0127 7.20736 18.0127H3.60937C3.5319 18.0127 3.47038 18.3385 3.47038 18.7419C3.47038 19.1452 3.5319 19.471 3.60937 19.471H7.20736ZM24.3883 23.6546C24.4658 23.6546 24.5273 23.3288 24.5273 22.9255C24.5273 22.5221 24.4658 22.1963 24.3883 22.1963H20.7904C20.7129 22.1963 20.6514 22.5221 20.6514 22.9255C20.6514 23.3288 20.7129 23.6546 20.7904 23.6546H24.3883ZM18.6621 23.6546C18.7396 23.6546 18.8011 23.3288 18.8011 22.9255C18.8011 22.5221 18.7396 22.1963 18.6621 22.1963H15.0641C14.9867 22.1963 14.9251 22.5221 14.9251 22.9255C14.9251 23.3288 14.9867 23.6546 15.0641 23.6546H18.6621ZM21.2529 1.0778C21.2529 0.483073 20.665 0 19.9382 0C19.2113 0 18.6234 0.483073 18.6234 1.0778V5.79915C18.6234 6.39388 19.2113 6.87695 19.9382 6.87695C20.665 6.87695 21.2529 6.39388 21.2529 5.79915V1.0778ZM26.5417 10.3268H1.46061V4.89225C1.46061 4.70996 1.53581 4.54362 1.65657 4.42057C1.77734 4.2998 1.94368 4.22461 2.12825 4.22461H4.52995C4.93327 4.22461 5.25911 3.89876 5.25911 3.49544C5.25911 3.09212 4.93327 2.76628 4.52995 2.76628H2.12597C1.54036 2.76628 1.00944 3.00553 0.624348 3.39063C0.239256 3.77572 0 4.30664 0 4.89225V11.0583V25.8763C0 26.4619 0.239256 26.9928 0.624348 27.3779C1.00944 27.763 1.54036 28.0023 2.12597 28.0023H25.874C26.4596 28.0023 26.9906 27.763 27.3757 27.3779C27.7607 26.9906 28 26.4596 28 25.874V11.056V4.89225C28 4.30664 27.7607 3.77572 27.3757 3.39063C26.9906 3.00553 26.4596 2.76628 25.874 2.76628H23.306C22.9027 2.76628 22.5768 3.09212 22.5768 3.49544C22.5768 3.89876 22.9027 4.22461 23.306 4.22461H25.874C26.0563 4.22461 26.2227 4.2998 26.3457 4.42057C26.4665 4.54134 26.5417 4.70768 26.5417 4.89225V10.3268ZM1.45833 11.7874H26.5417V25.874C26.5417 26.0563 26.4665 26.2227 26.3457 26.3457C26.2249 26.4665 26.0586 26.5417 25.874 26.5417H2.12597C1.94368 26.5417 1.77734 26.4665 1.65429 26.3457C1.53353 26.2249 1.45833 26.0586 1.45833 25.874V11.7874ZM16.5088 4.22461C16.9121 4.22461 17.238 3.89876 17.238 3.49544C17.238 3.09212 16.9121 2.76628 16.5088 2.76628H11.612C11.2087 2.76628 10.8828 3.09212 10.8828 3.49544C10.8828 3.89876 11.2087 4.22461 11.612 4.22461H16.5088Z" fill="#E0BF00"/>
</g>
<defs>
<clipPath id="clip0_145_128">
<rect width="28" height="28" fill="white" transform="matrix(-1 0 0 1 28 0)"/>
</clipPath>
</defs>
</svg>
