<?xml version="1.0" encoding="utf-8"?>
<!-- Generator: Adobe Illustrator 27.1.0, SVG Export Plug-In . SVG Version: 6.00 Build 0)  -->
<svg version="1.1" id="Calque_1" xmlns="http://www.w3.org/2000/svg" xmlns:xlink="http://www.w3.org/1999/xlink" x="0px" y="0px"
	 viewBox="0 0 48 48" style="enable-background:new 0 0 48 48;" xml:space="preserve">
<style type="text/css">
	.st0{fill:#FFFFFF;}
</style>
<path class="st0" d="M29.8,37c-1.4,0-2.5-0.5-3.4-1.4c-0.9-0.9-1.4-2.1-1.4-3.5c0-1.4,0.5-2.5,1.4-3.4c0.9-0.9,2.1-1.4,3.5-1.4
	c1.4,0,2.5,0.5,3.4,1.4s1.4,2.1,1.4,3.4s-0.5,2.5-1.4,3.4C32.4,36.5,31.2,37,29.8,37z M9,44c-0.8,0-1.5-0.3-2.1-0.9
	C6.3,42.5,6,41.8,6,41V10c0-0.8,0.3-1.5,0.9-2.1C7.5,7.3,8.2,7,9,7h3.2V4h3.2v3h17V4h3.2v3H39c0.8,0,1.5,0.3,2.1,0.9
	C41.7,8.5,42,9.2,42,10v31c0,0.8-0.3,1.5-0.9,2.1C40.5,43.7,39.8,44,39,44H9z M9,41h30V19.5H9V41z M9,16.5h30V10H9V16.5z M9,16.5V10
	V16.5z"/>
</svg>
