<?xml version="1.0" encoding="utf-8"?>
<!-- Generator: Adobe Illustrator 27.1.0, SVG Export Plug-In . SVG Version: 6.00 Build 0)  -->
<svg version="1.1" id="Calque_1" xmlns="http://www.w3.org/2000/svg" xmlns:xlink="http://www.w3.org/1999/xlink" x="0px" y="0px"
	 viewBox="0 0 48 48" style="enable-background:new 0 0 48 48;" xml:space="preserve">
<style type="text/css">
	.st0{fill:#FFFFFF;}
</style>
<path class="st0" d="M24,46l-6-6H9c-0.8,0-1.5-0.3-2.1-0.9C6.3,38.5,6,37.8,6,37V7c0-0.8,0.3-1.5,0.9-2.1S8.2,4,9,4h30
	c0.8,0,1.5,0.3,2.1,0.9S42,6.2,42,7v30c0,0.8-0.3,1.5-0.9,2.1C40.5,39.7,39.8,40,39,40h-9L24,46z M9,37h10.2l4.8,4.8l4.8-4.8H39V7H9
	V37z M9,7v30V7z M26.9,24.9l6.4-2.8l-6.4-2.8l-2.8-6.4l-2.9,6.4l-6.4,2.8l6.4,2.8l2.9,6.4L26.9,24.9z"/>
</svg>
