<svg version="1.1" id="Calque_1" xmlns="http://www.w3.org/2000/svg" xmlns:xlink="http://www.w3.org/1999/xlink" x="0px" y="0px"
	 viewBox="0 0 595.28 841.89" style="enable-background:new 0 0 595.28 841.89;" xml:space="preserve">
<style type="text/css">
	.st0{fill:#FFFFFF;stroke:#E0C002;stroke-width:6;stroke-miterlimit:10;}
	.st1{fill:#FFFFFF;stroke:#000000;stroke-width:6;stroke-miterlimit:10;}
	.st2{fill:none;}
</style>
<path class="st0" d="M296.64,447.97c0-38.27,0-76.54,0-114.81"/>
<path class="st0" d="M155.16,447.97c0-38.27,0-76.54,0-114.81"/>
<path class="st1" d="M222.66,276.37"/>
<path class="st0" d="M183.19,446.59c0.46-60.51,0.91-121.03,1.37-181.54c15.53,17.65,31.05,35.3,46.58,52.95"/>
<path class="st1" d="M225.4,340.75"/>
<path class="st0" d="M230.14,315.99c0,9.59,0,19.18,0,28.77"/>
<path class="st0" d="M154.16,335.16c22.83-27.85,45.67-55.71,68.5-83.56"/>
<path class="st0" d="M220.28,252.64c25.82,27.16,51.64,54.33,77.46,81.49"/>
<path class="st0" d="M295.26,444.59c-36.53-0.46-73.06-0.91-109.59-1.37"/>
<path class="st0" d="M215.02,444.56c0-14.51,0-29.02,0-43.53"/>
<path class="st0" d="M247.32,444.56c0-14.51,0-29.02,0-43.53"/>
<path class="st0" d="M211.7,401.03c12.79,0,25.57,0,38.36,0"/>
<rect x="310.33" y="376.37" class="st2" width="235.62" height="63.01"/>
</svg>