<?xml version="1.0" encoding="utf-8"?>
<!-- Generator: Adobe Illustrator 27.5.0, SVG Export Plug-In . SVG Version: 6.00 Build 0)  -->
<svg version="1.1" id="Calque_1" xmlns="http://www.w3.org/2000/svg" xmlns:xlink="http://www.w3.org/1999/xlink" x="0px" y="0px"
	 viewBox="0 0 595.3 841.9" style="enable-background:new 0 0 595.3 841.9;" xml:space="preserve">
<style type="text/css">
	.st0{fill:#FFFFFF;stroke:#E0C002;stroke-width:6;stroke-miterlimit:10;}
	.st1{fill:#FFFFFF;stroke:#000000;stroke-width:6;stroke-miterlimit:10;}
	.st2{fill:none;stroke:#E0C002;stroke-width:6;stroke-miterlimit:10;}
</style>
<g>
	<path class="st0" d="M296.6,448c0-38.3,0-76.5,0-114.8"/>
	<path class="st0" d="M155.2,448c0-38.3,0-76.5,0-114.8"/>
	<path class="st1" d="M222.7,276.4"/>
	<path class="st2" d="M183.2,446.6c0.5-60.5,0.9-121,1.4-181.5c15.5,17.6,31.1,35.3,46.6,53"/>
	<path class="st1" d="M225.4,340.8"/>
	<path class="st0" d="M230.1,316c0,9.6,0,19.2,0,28.8"/>
	<path class="st0" d="M154.2,335.2c22.8-27.9,45.7-55.7,68.5-83.6"/>
	<path class="st0" d="M220.3,252.6c25.8,27.2,51.6,54.3,77.5,81.5"/>
	<path class="st0" d="M295.3,444.6c-36.5-0.5-73.1-0.9-109.6-1.4"/>
	<path class="st0" d="M215,444.6c0-14.5,0-29,0-43.5"/>
	<path class="st0" d="M247.3,444.6c0-14.5,0-29,0-43.5"/>
	<path class="st0" d="M211.7,401c12.8,0,25.6,0,38.4,0"/>
</g>
</svg>
