<svg width="35" height="35" viewBox="0 0 35 35" fill="none" xmlns="http://www.w3.org/2000/svg">
<path d="M17.5002 34.8243L16.9001 33.9558C16.4487 33.3018 5.8335 17.8639 5.8335 11.6667C5.8335 5.23396 11.0675 0 17.5002 0C23.9329 0 29.1668 5.23396 29.1668 11.6667C29.1668 17.8639 18.5516 33.3018 18.1003 33.9558L17.5002 34.8243ZM17.5002 1.45833C11.871 1.45833 7.29183 6.0375 7.29183 11.6667C7.29183 16.6155 15.2288 28.8422 17.5002 32.2394C19.7715 28.8422 27.7085 16.6155 27.7085 11.6667C27.7085 6.0375 23.1293 1.45833 17.5002 1.45833Z" fill="#E0BF00"/>
<path d="M17.5002 16.7708C14.6863 16.7708 12.396 14.4813 12.396 11.6667C12.396 8.85208 14.6863 6.5625 17.5002 6.5625C20.314 6.5625 22.6043 8.85208 22.6043 11.6667C22.6043 14.4813 20.314 16.7708 17.5002 16.7708ZM17.5002 8.02083C15.4899 8.02083 13.8543 9.65635 13.8543 11.6667C13.8543 13.677 15.4899 15.3125 17.5002 15.3125C19.5105 15.3125 21.146 13.677 21.146 11.6667C21.146 9.65635 19.5105 8.02083 17.5002 8.02083Z" fill="#E0BF00"/>
</svg>
