<?xml version="1.0" encoding="utf-8"?>
<!-- Generator: Adobe Illustrator 27.1.0, SVG Export Plug-In . SVG Version: 6.00 Build 0)  -->
<svg version="1.1" id="Calque_1" xmlns="http://www.w3.org/2000/svg" xmlns:xlink="http://www.w3.org/1999/xlink" x="0px" y="0px"
	 viewBox="0 0 48 48" style="enable-background:new 0 0 48 48;" xml:space="preserve">
<style type="text/css">
	.st0{fill:#FFFFFF;}
</style>
<path class="st0" d="M26.2,34.9l7-7c0.4-0.4,0.6-0.8,0.8-1.2c0.2-0.4,0.2-0.9,0.2-1.4c0-1.1-0.4-2-1.1-2.7s-1.7-1.1-2.7-1.1
	c-0.7,0-1.3,0.2-2,0.6c-0.7,0.4-1.4,1.1-2.2,2.1c-0.8-1-1.5-1.7-2.2-2.1c-0.7-0.4-1.3-0.6-2-0.6c-1.1,0-2,0.4-2.7,1.1
	s-1.1,1.7-1.1,2.7c0,0.5,0.1,1,0.2,1.4c0.2,0.5,0.4,0.9,0.8,1.2L26.2,34.9z M28,43.1c-0.6,0.6-1.3,0.9-2.2,0.9
	c-0.8,0-1.6-0.3-2.2-0.9L4.8,24.4c-0.3-0.3-0.6-0.7-0.7-1C4.1,23,4,22.6,4,22.2V7c0-0.9,0.3-1.6,0.8-2.2S6.1,4,7,4h15.2
	c0.4,0,0.8,0.1,1.2,0.2c0.4,0.1,0.8,0.3,1.1,0.7l18.7,18.7c0.6,0.6,1,1.4,1,2.2c0,0.8-0.3,1.6-1,2.2L28,43.1z M25.9,41.1l15.2-15.2
	L22.2,7H7v15.2L25.9,41.1z M12.2,14.8c0.7,0,1.3-0.3,1.8-0.8c0.5-0.5,0.8-1.1,0.8-1.8c0-0.7-0.3-1.3-0.8-1.8
	c-0.5-0.5-1.1-0.8-1.8-0.8s-1.3,0.3-1.8,0.8c-0.5,0.5-0.8,1.1-0.8,1.8c0,0.7,0.3,1.3,0.8,1.8S11.6,14.8,12.2,14.8z"/>
</svg>
