<?xml version="1.0" encoding="utf-8"?>
<!-- Generator: Adobe Illustrator 27.1.0, SVG Export Plug-In . SVG Version: 6.00 Build 0)  -->
<svg version="1.1" id="Calque_1" xmlns="http://www.w3.org/2000/svg" xmlns:xlink="http://www.w3.org/1999/xlink" x="0px" y="0px"
	 viewBox="0 0 48 48" style="enable-background:new 0 0 48 48;" xml:space="preserve">
<style type="text/css">
	.st0{fill:#FFFFFF;}
</style>
<path class="st0" d="M12,28h3.9l12.6-12.5c0.2-0.2,0.3-0.4,0.3-0.8s-0.1-0.6-0.3-0.8l-2.8-2.5c-0.2-0.2-0.4-0.2-0.6-0.2
	s-0.5,0.1-0.6,0.2L12,24.3V28z M20.2,28H36v-3H23.2L20.2,28z M4,44V7c0-0.8,0.3-1.5,0.9-2.1S6.2,4,7,4h34c0.8,0,1.5,0.3,2.1,0.9
	C43.7,5.5,44,6.2,44,7v26c0,0.8-0.3,1.5-0.9,2.1C42.5,35.7,41.8,36,41,36H12L4,44z M10.7,33H41V7H7v30L10.7,33z M7,33V7V33z"/>
</svg>
