<?xml version="1.0" encoding="utf-8"?>
<!-- Generator: Adobe Illustrator 27.5.0, SVG Export Plug-In . SVG Version: 6.00 Build 0)  -->
<svg version="1.1" id="Calque_1" xmlns="http://www.w3.org/2000/svg" xmlns:xlink="http://www.w3.org/1999/xlink" x="0px" y="0px"
	 viewBox="0 0 500 500" style="enable-background:new 0 0 500 500;" xml:space="preserve">
<style type="text/css">
	.st0{clip-path:url(#SVGID_00000100354513927410836230000008838978766876773808_);}
	.st1{fill:#E0BF00;}
	.st2{font-family:'Vogue-Regular';}
	.st3{font-size:26.0062px;}
	.st4{font-family:'Glamor-LightCondensed';}
</style>
<g>
	<defs>
		<rect id="SVGID_1_" x="161.6" y="243.7" width="35.4" height="51.2"/>
	</defs>
	<clipPath id="SVGID_00000112620930004509465530000009392852845328062900_">
		<use xlink:href="#SVGID_1_"  style="overflow:visible;"/>
	</clipPath>
	<g style="clip-path:url(#SVGID_00000112620930004509465530000009392852845328062900_);">
		<path class="st1" d="M197,294.9h-27.7v-40.7l-7.3,7.2v33.3h-0.5v-33.5l7.8-7.7v-8l4,4l5.7-5.7l18,17.9L197,294.9L197,294.9z
			 M169.9,294.4h26.7v-32.5l-17.4-17.4l-5.3,5.3l13.7,13.7v14.8H187v-14.6l-13.6-13.5l-3.5,3.5V294.4z M169.9,246.7v6.3l3.2-3.1
			L169.9,246.7z M183.2,294.6l-0.2-12.3h-7.7v12.3h0.5v-11.8h6.7l0.2,11.8L183.2,294.6z"/>
	</g>
</g>
<g>
	<g transform="translate(241.730803, 247.949252)">
	</g>
</g>
<text transform="matrix(1 0 0 1 207.0635 283.4592)"><tspan x="0" y="0" class="st2 st3">TAILL</tspan><tspan x="63.7" y="0" class="st4 st3">É </tspan><tspan x="81.7" y="0" class="st2 st3">D</tspan><tspan x="97.7" y="0" class="st4 st3">’</tspan><tspan x="101.1" y="0" class="st2 st3">OR</tspan></text>
</svg>
