<svg width="60" height="27" viewBox="0 0 60 27" fill="none" xmlns="http://www.w3.org/2000/svg">
<path d="M1.39535 17V4.84051H8.18108V6.51825H3.3721V9.54982H8.18108V11.2857H3.3721V17H1.39535ZM12.309 10.0232H12.6661C13.7127 10.0232 14.4076 9.90143 14.7509 9.65779C15.0942 9.41416 15.2658 8.98227 15.2658 8.36211C15.2658 7.69212 15.0803 7.22146 14.7093 6.95015C14.3439 6.67329 13.6628 6.53486 12.6661 6.53486H12.309V10.0232ZM12.1844 11.5598V17H10.3322V4.84051H13.0897C13.8981 4.84051 14.5238 4.89311 14.9668 4.99832C15.4153 5.10352 15.7974 5.27794 16.113 5.52157C16.4895 5.81504 16.7802 6.19433 16.9851 6.65945C17.19 7.12457 17.2924 7.63398 17.2924 8.18769C17.2924 9.16222 17.0571 9.92634 16.5864 10.4801C16.1158 11.0282 15.4208 11.3577 14.5017 11.4684L18.6877 17H16.4535L12.4087 11.5598H12.1844Z" fill="white"/>
<rect x="32" width="2" height="27" rx="1" fill="#E0BF00"/>
<path d="M53.4638 6.70177C54.0308 6.70177 54.5638 6.76414 55.0627 6.88888C55.5617 7.01362 56.0437 7.21207 56.5086 7.48423L55.8792 8.70895C55.5617 8.53885 55.1875 8.38009 54.7566 8.23267C54.337 8.08525 53.9061 8.01154 53.4638 8.01154C53.0442 8.01154 52.6587 8.07958 52.3071 8.21566C51.9556 8.3404 51.6437 8.53885 51.3716 8.81101C51.1108 9.08317 50.884 9.42337 50.6912 9.83161C50.4984 10.2398 50.351 10.7161 50.2489 11.2604H54.3994V12.3661H50.1298C50.1185 12.4795 50.1128 12.5872 50.1128 12.6893C50.1128 12.7913 50.1128 12.8991 50.1128 13.0125C50.1128 13.1145 50.1128 13.2279 50.1128 13.3527C50.1128 13.4661 50.1185 13.5851 50.1298 13.7099H53.8891V14.8155H50.2659C50.402 15.4506 50.6118 15.9949 50.8953 16.4485C51.1788 16.9021 51.5473 17.248 52.0009 17.4861C52.4545 17.7242 52.9875 17.8433 53.5999 17.8433C54.0421 17.8433 54.4844 17.7923 54.9267 17.6902C55.3803 17.5768 55.7828 17.4464 56.1344 17.299V18.6258C55.7828 18.7732 55.3916 18.8979 54.9607 19C54.5411 19.1134 54.0592 19.1701 53.5148 19.1701C52.5963 19.1701 51.8138 18.9943 51.1675 18.6428C50.5211 18.2912 49.9994 17.7923 49.6025 17.1459C49.2056 16.4882 48.9221 15.7114 48.752 14.8155H47.3912V13.7099H48.616C48.6046 13.5738 48.5989 13.4604 48.5989 13.3697C48.5989 13.279 48.5989 13.1599 48.5989 13.0125C48.5989 12.8877 48.5989 12.7687 48.5989 12.6553C48.6103 12.5305 48.616 12.4341 48.616 12.3661H47.3912V11.2604H48.735C48.8824 10.3306 49.1546 9.52543 49.5515 8.84503C49.9484 8.16463 50.4757 7.63732 51.1334 7.2631C51.7912 6.88888 52.5679 6.70177 53.4638 6.70177Z" fill="white"/>
</svg>
