<svg width="27" height="26" viewBox="0 0 27 26" fill="none" xmlns="http://www.w3.org/2000/svg">
<path d="M20.442 4.498C20.1335 4.498 19.8319 4.58949 19.5753 4.76091C19.3188 4.93232 19.1188 5.17596 19.0007 5.46101C18.8827 5.74607 18.8518 6.05973 18.912 6.36234C18.9722 6.66495 19.1207 6.94292 19.3389 7.16109C19.5571 7.37926 19.835 7.52783 20.1377 7.58802C20.4403 7.64822 20.7539 7.61732 21.039 7.49925C21.324 7.38118 21.5677 7.18123 21.7391 6.92469C21.9105 6.66815 22.002 6.36654 22.002 6.058C22.002 5.64426 21.8376 5.24747 21.5451 4.95491C21.2525 4.66236 20.8557 4.498 20.442 4.498ZM26.422 7.644C26.3967 6.56539 26.1947 5.49822 25.824 4.485C25.4935 3.61807 24.979 2.83306 24.316 2.184C23.6723 1.51765 22.8854 1.00643 22.015 0.689C21.0045 0.307009 19.9361 0.100373 18.856 0.0779999C17.478 -7.26432e-08 17.036 0 13.5 0C9.964 0 9.522 -7.26432e-08 8.144 0.0779999C7.0639 0.100373 5.99555 0.307009 4.985 0.689C4.11618 1.00964 3.33001 1.52043 2.684 2.184C2.01765 2.82773 1.50643 3.61457 1.189 4.485C0.807009 5.49555 0.600373 6.5639 0.578 7.644C0.5 9.022 0.5 9.464 0.5 13C0.5 16.536 0.5 16.978 0.578 18.356C0.600373 19.4361 0.807009 20.5045 1.189 21.515C1.50643 22.3854 2.01765 23.1723 2.684 23.816C3.33001 24.4796 4.11618 24.9904 4.985 25.311C5.99555 25.693 7.0639 25.8996 8.144 25.922C9.522 26 9.964 26 13.5 26C17.036 26 17.478 26 18.856 25.922C19.9361 25.8996 21.0045 25.693 22.015 25.311C22.8854 24.9936 23.6723 24.4823 24.316 23.816C24.9819 23.1694 25.4968 22.3837 25.824 21.515C26.1947 20.5018 26.3967 19.4346 26.422 18.356C26.422 16.978 26.5 16.536 26.5 13C26.5 9.464 26.5 9.022 26.422 7.644ZM24.082 18.2C24.0725 19.0252 23.9231 19.8428 23.64 20.618C23.4324 21.1838 23.099 21.695 22.665 22.113C22.2433 22.5427 21.7332 22.8754 21.17 23.088C20.3948 23.3711 19.5772 23.5205 18.752 23.53C17.452 23.595 16.971 23.608 13.552 23.608C10.133 23.608 9.652 23.608 8.352 23.53C7.49516 23.546 6.64197 23.4141 5.83 23.14C5.29152 22.9165 4.80476 22.5846 4.4 22.165C3.96851 21.7474 3.6393 21.2357 3.438 20.67C3.12061 19.8837 2.94458 19.0475 2.918 18.2C2.918 16.9 2.84 16.419 2.84 13C2.84 9.581 2.84 9.1 2.918 7.8C2.92383 6.95637 3.07784 6.12033 3.373 5.33C3.60186 4.78128 3.95314 4.29216 4.4 3.9C4.79496 3.45302 5.28307 3.09802 5.83 2.86C6.62242 2.57406 7.4576 2.4246 8.3 2.418C9.6 2.418 10.081 2.34 13.5 2.34C16.919 2.34 17.4 2.34 18.7 2.418C19.5252 2.42746 20.3428 2.57692 21.118 2.86C21.7088 3.07925 22.239 3.4357 22.665 3.9C23.091 4.29933 23.4239 4.78755 23.64 5.33C23.9289 6.12161 24.0785 6.95731 24.082 7.8C24.147 9.1 24.16 9.581 24.16 13C24.16 16.419 24.147 16.9 24.082 18.2ZM13.5 6.331C12.1816 6.33357 10.8935 6.72688 9.79845 7.46124C8.70345 8.1956 7.85069 9.23806 7.34792 10.4569C6.84516 11.6757 6.71494 13.0162 6.97373 14.309C7.23252 15.6018 7.86871 16.7889 8.8019 17.7203C9.73509 18.6516 10.9234 19.2855 12.2167 19.5418C13.51 19.7981 14.8503 19.6652 16.0681 19.1601C17.286 18.655 18.3267 17.8002 19.059 16.7037C19.7912 15.6073 20.182 14.3184 20.182 13C20.1837 12.1226 20.012 11.2536 19.6766 10.4428C19.3413 9.6321 18.8489 8.89565 18.2279 8.27587C17.6069 7.65608 16.8695 7.16518 16.0581 6.83141C15.2467 6.49763 14.3774 6.32757 13.5 6.331ZM13.5 17.329C12.6438 17.329 11.8068 17.0751 11.0949 16.5994C10.383 16.1238 9.82818 15.4477 9.50052 14.6566C9.17287 13.8656 9.08714 12.9952 9.25418 12.1555C9.42122 11.3157 9.83351 10.5444 10.4389 9.93893C11.0444 9.33351 11.8157 8.92122 12.6555 8.75418C13.4952 8.58714 14.3656 8.67287 15.1566 9.00052C15.9477 9.32818 16.6238 9.88304 17.0994 10.5949C17.5751 11.3068 17.829 12.1438 17.829 13C17.829 13.5685 17.717 14.1314 17.4995 14.6566C17.2819 15.1819 16.963 15.6591 16.5611 16.0611C16.1591 16.463 15.6819 16.7819 15.1566 16.9995C14.6314 17.217 14.0685 17.329 13.5 17.329Z" fill="#E0BF00"/>
</svg>
