<svg width="33" height="26" viewBox="0 0 33 26" fill="none" xmlns="http://www.w3.org/2000/svg">
<path d="M32.5 3.11498C31.2973 3.63573 30.0255 3.97997 28.724 4.13701C30.0971 3.3183 31.126 2.03031 31.62 0.511977C30.3297 1.2786 28.9172 1.81874 27.444 2.10891C26.4593 1.04307 25.1479 0.333594 23.7157 0.0917464C22.2834 -0.150101 20.8113 0.0893622 19.5301 0.772579C18.2489 1.4558 17.2311 2.54412 16.6364 3.86687C16.0417 5.18962 15.9037 6.67196 16.244 8.08143C13.6351 7.94973 11.0831 7.27171 8.75385 6.09143C6.42459 4.91116 4.37015 3.25501 2.724 1.2306C2.14662 2.23693 1.84323 3.37659 1.844 4.53624C1.84195 5.61319 2.10675 6.67392 2.61481 7.62401C3.12287 8.5741 3.85843 9.38406 4.756 9.98178C3.71276 9.95345 2.69182 9.67405 1.78 9.16735V9.24719C1.78782 10.7561 2.31759 12.216 3.2797 13.38C4.24182 14.544 5.57721 15.3405 7.06 15.6349C6.48921 15.8083 5.8966 15.8997 5.3 15.9064C4.88702 15.9016 4.47508 15.8642 4.068 15.7946C4.49026 17.0926 5.3074 18.227 6.40572 19.0398C7.50404 19.8527 8.82892 20.3036 10.196 20.3299C7.88753 22.1428 5.03741 23.1323 2.1 23.1405C1.56518 23.1422 1.03078 23.1102 0.5 23.0447C3.49909 24.9774 6.9941 26.0033 10.564 25.999C13.0275 26.0245 15.4714 25.5599 17.753 24.6322C20.0346 23.7044 22.108 22.3323 23.8523 20.5958C25.5966 18.8593 26.9767 16.7933 27.9121 14.5185C28.8474 12.2437 29.3193 9.80568 29.3 7.34684C29.3 7.07536 29.3 6.78792 29.3 6.50047C30.5555 5.56596 31.6384 4.42035 32.5 3.11498Z" fill="#E0BF00"/>
</svg>
