<svg width="38" height="26" viewBox="0 0 38 26" fill="none" xmlns="http://www.w3.org/2000/svg">
<path d="M37.4915 9.16322C37.5746 6.7574 37.0485 4.36959 35.962 2.22149C35.2248 1.34008 34.2018 0.745258 33.0711 0.540687C28.3944 0.116326 23.6984 -0.0576055 19.0031 0.0196373C14.325 -0.0611114 9.64588 0.107208 4.98563 0.523879C4.06427 0.691483 3.21162 1.12366 2.53173 1.76767C1.01904 3.16274 0.850969 5.54949 0.682893 7.56645C0.439036 11.1929 0.439036 14.8316 0.682893 18.4581C0.731518 19.5933 0.900541 20.7201 1.18712 21.8197C1.38978 22.6686 1.79979 23.454 2.38046 24.1056C3.06498 24.7837 3.93749 25.2405 4.88479 25.4166C8.50836 25.8639 12.1595 26.0493 15.8097 25.9713C21.6924 26.0553 26.8523 25.9713 32.9534 25.5006C33.924 25.3353 34.8211 24.878 35.525 24.1896C35.9955 23.7188 36.347 23.1426 36.5503 22.5088C37.1513 20.6643 37.4466 18.7339 37.4242 16.7941C37.4915 15.8528 37.4915 10.1717 37.4915 9.16322ZM15.2046 17.8026V7.39837L25.1547 12.6257C22.3647 14.172 18.6838 15.9201 15.2046 17.8026Z" fill="#E0BF00"/>
</svg>
